<?xml version="1.0" encoding="UTF-8" standalone="no"?>
<svg width="918px" height="587px" viewBox="0 0 918 587" version="1.1" xmlns="http://www.w3.org/2000/svg">
  <!-- Generator: Sketch 48.1 (47250) - http://www.bohemiancoding.com/sketch -->
  <title>diagram-2</title>
  <desc>Created with Sketch.</desc>
  <defs></defs>
  <g id="Diagrams" stroke="none" stroke-width="1" fill="none" fill-rule="evenodd">
    <g id="diagram-2">
      <text id="Remote-cache" fill="#02303A" font-family="Lato-Regular, Lato" font-size="14" font-weight="normal"
            line-spacing="23">
        <tspan x="415.2365" y="159">Remote cache</tspan>
      </text>
      <polygon id="Polygon-Copy-2" stroke="#000000"
               points="459 92 514 124.5 514 189.5 459 222 404 189.5 404 124.5"></polygon>
      <rect id="Rectangle-path" stroke="#02303A" fill-rule="nonzero" x="332" y="53" width="254" height="182"
            rx="5"></rect>
      <g id="Group" transform="translate(344.000000, 63.000000)" fill="#02303A" font-family="Lato-Regular, Lato"
         font-size="12" font-weight="normal">
        <g id="Gradle-Enterprise">
          <text>
            <tspan x="0" y="12">Gradle Enterprise</tspan>
          </text>
        </g>
      </g>
      <rect id="Rectangle-path-Copy" stroke="#02303A" fill-rule="nonzero" x="31" y="273" width="410" height="276"
            rx="5"></rect>
      <g id="Group-Copy" transform="translate(43.000000, 283.000000)" fill="#000000" font-family="Lato-Regular, Lato"
         font-size="12" font-weight="normal">
        <g id="Group">
          <text id="Gradle">
            <tspan x="0.5" y="12">Gradle</tspan>
          </text>
        </g>
      </g>
      <g id="Group" transform="translate(325.000000, 394.000000)" fill="#000000" font-family="Lato-Regular, Lato"
         font-size="14" font-weight="normal">
        <g id="Local-cache">
          <text>
            <tspan x="0" y="14">Local cache</tspan>
          </text>
        </g>
      </g>
      <polygon id="Polygon-Copy-2" stroke="#000000"
               points="361 337 416 369.5 416 434.5 361 467 306 434.5 306 369.5"></polygon>
      <g id="Page-1" transform="translate(104.000000, 83.000000)">
        <path d="M20,12 L20,32" id="Stroke-1" stroke="#02303A"></path>
        <polygon id="Fill-2" fill="#FFFFFF" points="1 12 40 12 40 1 1 1"></polygon>
        <polygon id="Stroke-3" stroke="#02303A" points="1 12 40 12 40 1 1 1"></polygon>
        <polygon id="Fill-5" fill="#FFFFFF" points="1 27 40 27 40 16 1 16"></polygon>
        <polygon id="Stroke-6" stroke="#02303A" points="1 27 40 27 40 16 1 16"></polygon>
        <polygon id="Fill-8" fill="#FFFFFF" points="1 43 40 43 40 32 1 32"></polygon>
        <g id="Group-30">
          <polygon id="Stroke-9" stroke="#02303A"
                   points="0.569620253 43.4358974 39.3037975 43.4358974 39.3037975 32.1538462 0.569620253 32.1538462"></polygon>
          <path
            d="M33.3394177,4.13712821 C32.0816962,4.13712821 31.0609367,5.148 31.0609367,6.39353846 C31.0609367,7.63907692 32.0816962,8.64994872 33.3394177,8.64994872 C34.5971392,8.64994872 35.6178987,7.63907692 35.6178987,6.39353846 C35.6178987,5.148 34.5971392,4.13712821 33.3394177,4.13712821"
            id="Fill-11" fill="#FFFFFF"></path>
          <path
            d="M33.3394177,4.13712821 C32.0816962,4.13712821 31.0609367,5.148 31.0609367,6.39353846 C31.0609367,7.63907692 32.0816962,8.64994872 33.3394177,8.64994872 C34.5971392,8.64994872 35.6178987,7.63907692 35.6178987,6.39353846 C35.6178987,5.148 34.5971392,4.13712821 33.3394177,4.13712821 Z"
            id="Stroke-12" stroke="#02303A" stroke-width="0.75"></path>
          <path
            d="M33.3394177,19.932 C32.0816962,19.932 31.0609367,20.9428718 31.0609367,22.1884103 C31.0609367,23.4339487 32.0816962,24.4448205 33.3394177,24.4448205 C34.5971392,24.4448205 35.6178987,23.4339487 35.6178987,22.1884103 C35.6178987,20.9428718 34.5971392,19.932 33.3394177,19.932"
            id="Fill-13" fill="#FFFFFF"></path>
          <path
            d="M33.3394177,19.932 C32.0816962,19.932 31.0609367,20.9428718 31.0609367,22.1884103 C31.0609367,23.4339487 32.0816962,24.4448205 33.3394177,24.4448205 C34.5971392,24.4448205 35.6178987,23.4339487 35.6178987,22.1884103 C35.6178987,20.9428718 34.5971392,19.932 33.3394177,19.932 Z"
            id="Stroke-14" stroke="#02303A" stroke-width="0.75"></path>
          <path
            d="M33.3394177,35.7268718 C32.0816962,35.7268718 31.0609367,36.7377436 31.0609367,37.9832821 C31.0609367,39.2288205 32.0816962,40.2396923 33.3394177,40.2396923 C34.5971392,40.2396923 35.6178987,39.2288205 35.6178987,37.9832821 C35.6178987,36.7377436 34.5971392,35.7268718 33.3394177,35.7268718"
            id="Fill-15" fill="#FFFFFF"></path>
          <path
            d="M33.3394177,35.7268718 C32.0816962,35.7268718 31.0609367,36.7377436 31.0609367,37.9832821 C31.0609367,39.2288205 32.0816962,40.2396923 33.3394177,40.2396923 C34.5971392,40.2396923 35.6178987,39.2288205 35.6178987,37.9832821 C35.6178987,36.7377436 34.5971392,35.7268718 33.3394177,35.7268718 Z"
            id="Stroke-16" stroke="#02303A" stroke-width="0.75"></path>
          <path d="M70.0632911,12.4102564 L70.0632911,32.7179487" id="Stroke-17" stroke="#02303A"></path>
          <polygon id="Fill-18" fill="#FFFFFF"
                   points="50.6962025 11.8461538 89.4303797 11.8461538 89.4303797 0.564102564 50.6962025 0.564102564"></polygon>
          <polygon id="Stroke-19" stroke="#02303A"
                   points="50.6962025 11.8461538 89.4303797 11.8461538 89.4303797 0.564102564 50.6962025 0.564102564"></polygon>
          <polygon id="Fill-20" fill="#FFFFFF"
                   points="50.6962025 27.6410256 89.4303797 27.6410256 89.4303797 16.3589744 50.6962025 16.3589744"></polygon>
          <polygon id="Stroke-21" stroke="#02303A"
                   points="50.6962025 27.6410256 89.4303797 27.6410256 89.4303797 16.3589744 50.6962025 16.3589744"></polygon>
          <polygon id="Fill-22" fill="#FFFFFF"
                   points="50.6962025 43.4358974 89.4303797 43.4358974 89.4303797 32.1538462 50.6962025 32.1538462"></polygon>
          <polygon id="Stroke-23" stroke="#02303A"
                   points="50.6962025 43.4358974 89.4303797 43.4358974 89.4303797 32.1538462 50.6962025 32.1538462"></polygon>
          <path
            d="M83.466,4.13712821 C82.2082785,4.13712821 81.187519,5.148 81.187519,6.39353846 C81.187519,7.63907692 82.2082785,8.64994872 83.466,8.64994872 C84.7237215,8.64994872 85.744481,7.63907692 85.744481,6.39353846 C85.744481,5.148 84.7237215,4.13712821 83.466,4.13712821"
            id="Fill-24" fill="#FFFFFF"></path>
          <path
            d="M83.466,4.13712821 C82.2082785,4.13712821 81.187519,5.148 81.187519,6.39353846 C81.187519,7.63907692 82.2082785,8.64994872 83.466,8.64994872 C84.7237215,8.64994872 85.744481,7.63907692 85.744481,6.39353846 C85.744481,5.148 84.7237215,4.13712821 83.466,4.13712821 Z"
            id="Stroke-25" stroke="#02303A" stroke-width="0.75"></path>
          <path
            d="M83.466,19.932 C82.2082785,19.932 81.187519,20.9428718 81.187519,22.1884103 C81.187519,23.4339487 82.2082785,24.4448205 83.466,24.4448205 C84.7237215,24.4448205 85.744481,23.4339487 85.744481,22.1884103 C85.744481,20.9428718 84.7237215,19.932 83.466,19.932"
            id="Fill-26" fill="#FFFFFF"></path>
          <path
            d="M83.466,19.932 C82.2082785,19.932 81.187519,20.9428718 81.187519,22.1884103 C81.187519,23.4339487 82.2082785,24.4448205 83.466,24.4448205 C84.7237215,24.4448205 85.744481,23.4339487 85.744481,22.1884103 C85.744481,20.9428718 84.7237215,19.932 83.466,19.932 Z"
            id="Stroke-27" stroke="#02303A" stroke-width="0.75"></path>
          <path
            d="M83.466,35.7268718 C82.2082785,35.7268718 81.187519,36.7377436 81.187519,37.9832821 C81.187519,39.2288205 82.2082785,40.2396923 83.466,40.2396923 C84.7237215,40.2396923 85.744481,39.2288205 85.744481,37.9832821 C85.744481,36.7377436 84.7237215,35.7268718 83.466,35.7268718"
            id="Fill-28" fill="#FFFFFF"></path>
          <path
            d="M83.466,35.7268718 C82.2082785,35.7268718 81.187519,36.7377436 81.187519,37.9832821 C81.187519,39.2288205 82.2082785,40.2396923 83.466,40.2396923 C84.7237215,40.2396923 85.744481,39.2288205 85.744481,37.9832821 C85.744481,36.7377436 84.7237215,35.7268718 83.466,35.7268718 Z"
            id="Stroke-29" stroke="#02303A" stroke-width="0.75"></path>
        </g>
      </g>
      <text id="CI" fill="#02303A" font-family="Lato-Regular, Lato" font-size="14" font-weight="normal">
        <tspan x="142" y="149">CI</tspan>
      </text>
      <g id="Stroke-622-+-Stroke-623-Copy-2"
         transform="translate(303.500000, 103.000000) rotate(-270.000000) translate(-303.500000, -103.000000) translate(292.000000, 11.000000)"
         stroke="#02303A" stroke-linecap="round" stroke-linejoin="round">
        <path d="M12,182.02486 L12,1" id="Stroke-622"></path>
        <polyline id="Stroke-623-Copy"
                  transform="translate(11.685547, 7.151367) rotate(-180.000000) translate(-11.685547, -7.151367) "
                  points="0.685546875 0.651367188 11.6855469 13.6513672 22.6855469 0.651367188"></polyline>
      </g>
      <text id="Write" font-family="Lato-Regular, Lato" font-size="14" font-weight="normal" fill="#02303A">
        <tspan x="253.133" y="92">Write</tspan>
      </text>
      <text id="1.-Read-miss" font-family="Lato-Regular, Lato" font-size="14" font-weight="normal" fill="#02303A">
        <tspan x="149.9515" y="389">1. Read miss</tspan>
      </text>
      <text id="4.-Write" font-family="Lato-Regular, Lato" font-size="14" font-weight="normal" fill="#02303A">
        <tspan x="211.2235" y="518">4. Write</tspan>
      </text>
      <text id="3.-Execute-task" font-family="Lato-Regular, Lato" font-size="14" font-weight="normal" fill="#02303A">
        <tspan x="67.1285" y="449">3. Execute task</tspan>
      </text>
      <text id="2.-Read-miss" font-family="Lato-Regular, Lato" font-size="14" font-weight="normal" fill="#02303A">
        <tspan x="81.4515" y="331">2. Read miss</tspan>
      </text>
      <g id="Group-5" transform="translate(96.000000, 378.000000)">
        <polygon id="Fill-12"
                 points="17.9173556 3.16783333 14.217816 7.005 13.4898125 10.6461667 13.952255 20.0401667 17.9173556 25.002 17.9253682 29.0258333 2.33167146 36.7398333 0 44 45 44 42.6683285 36.7398333 27.0746318 29.0258333 27.0826444 25.002 31.047745 20.0401667 31.5113321 10.6461667 30.782184 7.005 27.0826444 2"></polygon>
        <polygon id="Stroke-13" stroke="#02303A" stroke-linejoin="round"
                 points="27.0746318 29.1384211 27.0826444 25.1436842 31.047745 20.2203158 31.5101875 10.8957895 31.5101875 4.05263158 27.0746318 0 18.7855798 0 13.952255 4.05263158 13.4886679 10.8957895 13.952255 20.2203158 17.9173556 25.1436842 17.9253682 29.1384211 2.33167146 36.7932632 0 44 45 44 42.6683285 36.7932632"></polygon>
        <polyline id="Path-3" stroke="#02303A" points="13 10 21.1290323 8.36363636 27.516129 4 31 10"></polyline>
        <polyline id="Path-2" stroke="#02303A" points="18 29 22.7058824 33 28 29"></polyline>
      </g>
      <g id="Group-3" transform="translate(45.000000, 317.000000)">
        <text id="2" font-family="Lato-Regular, Lato" font-size="12" font-weight="normal" fill="#02303A">
          <tspan x="5.67283203" y="13">2</tspan>
        </text>
        <circle id="Oval-2-Copy" stroke="#02303A" cx="9" cy="9" r="9"></circle>
      </g>
      <g id="Stroke-3998-+-Fill-3999-+-Stroke-4000" transform="translate(179.000000, 398.000000)">
        <rect id="Rectangle" fill="#02303A" x="9" y="4" width="1" height="7" rx="0.5"></rect>
        <path
          d="M8.5,14 C8.5,14.5525 8.9475,15 9.5,15 C10.0515,15 10.5,14.5525 10.5,14 C10.5,13.448 10.0515,13 9.5,13 C8.9475,13 8.5,13.448 8.5,14 Z"
          id="Fill-3999" fill="#02303A"></path>
        <polygon id="Stroke-4000" stroke="#02303A" stroke-linecap="round" stroke-linejoin="round"
                 points="9.5 19 0 9.5 9.5 0 19 9.5"></polygon>
      </g>
      <g id="Stroke-3998-+-Fill-3999-+-Stroke-4000-Copy" transform="translate(109.000000, 341.000000)">
        <rect id="Rectangle" fill="#02303A" x="9.94736842" y="4.21052632" width="1.10526316" height="7.36842105"
              rx="0.552631579"></rect>
        <path
          d="M9.39473684,14.7368421 C9.39473684,15.3184211 9.88934211,15.7894737 10.5,15.7894737 C11.1095526,15.7894737 11.6052632,15.3184211 11.6052632,14.7368421 C11.6052632,14.1557895 11.1095526,13.6842105 10.5,13.6842105 C9.88934211,13.6842105 9.39473684,14.1557895 9.39473684,14.7368421 Z"
          id="Fill-3999" fill="#02303A"></path>
        <polygon id="Stroke-4000" stroke="#02303A" stroke-linecap="round" stroke-linejoin="round"
                 points="10.5 20 0 10 10.5 0 21 10"></polygon>
      </g>
      <polyline id="Path-5" stroke="#02303A" points="120 309.5 120 212 394 212"></polyline>
      <polyline id="Path-5" stroke="#02303A"
                transform="translate(238.000000, 504.500000) scale(1, -1) translate(-238.000000, -504.500000) "
                points="115 523 115 479 361 479 361 530"></polyline>
      <polyline id="Stroke-623-Copy" stroke="#02303A" stroke-linecap="round" stroke-linejoin="round"
                transform="translate(388.000000, 211.500000) rotate(-90.000000) translate(-388.000000, -211.500000) "
                points="377 205 388 218 399 205"></polyline>
      <g id="Stroke-3564-+-Stroke-3565" transform="translate(106.000000, 458.000000)" stroke="#02303A"
         stroke-linecap="round" stroke-linejoin="round">
        <polyline id="Stroke-3564"
                  points="0.822618182 6.19324545 3.27020909 9.87956364 6.13998182 6.61256364"></polyline>
        <path
          d="M3.27462727,9.87985 C2.88721818,4.64307727 6.48312727,1.04921364 10.7736727,0.899077273 C15.0629909,0.749759091 18.6634,4.10635 18.8123091,8.39648636 C18.9640818,12.6866227 15.6058545,16.2858045 11.3157182,16.4351227"
          id="Stroke-3565"></path>
      </g>
      <polyline id="Stroke-623-Copy" stroke="#02303A" stroke-linecap="round" stroke-linejoin="round"
                transform="translate(361.000000, 484.500000) rotate(-180.000000) translate(-361.000000, -484.500000) "
                points="350 478 361 491 372 478"></polyline>
      <g id="Stroke-622-+-Stroke-623-Copy-4"
         transform="translate(262.500000, 401.000000) rotate(-270.000000) translate(-262.500000, -401.000000) translate(251.000000, 376.000000)"
         stroke="#02303A" stroke-linecap="round" stroke-linejoin="round">
        <path d="M12,48.5026584 L12,1.48093591" id="Stroke-622"></path>
        <polyline id="Stroke-623-Copy"
                  transform="translate(11.972168, 6.837402) rotate(-180.000000) translate(-11.972168, -6.837402) "
                  points="0.972167969 0.587402344 11.972168 13.0874023 22.972168 0.587402344"></polyline>
      </g>
      <rect id="Rectangle-path-Copy-2" stroke="#02303A" fill-rule="nonzero" x="479" y="273" width="410" height="276"
            rx="5"></rect>
      <text id="2.-Read" font-family="Lato-Regular, Lato" font-size="14" font-weight="normal" fill="#02303A">
        <tspan x="539.743" y="361">2. Read</tspan>
      </text>
      <g id="Stroke-622-+-Stroke-623-Copy-2"
         transform="translate(564.000000, 275.500000) rotate(-360.000000) translate(-564.000000, -275.500000) translate(553.000000, 213.000000)"
         stroke="#02303A" stroke-linecap="round" stroke-linejoin="round">
        <path d="M11,124.601426 L11,0.498992763" id="Stroke-622"></path>
        <polyline id="Stroke-623-Copy"
                  transform="translate(11.000000, 6.250000) rotate(-180.000000) translate(-11.000000, -6.250000) "
                  points="0 0 11 12.5 22 0"></polyline>
      </g>
      <g id="Group-Copy-3" transform="translate(491.000000, 283.000000)" fill="#000000" font-family="Lato-Regular, Lato"
         font-size="12" font-weight="normal">
        <g id="Group">
          <text id="Gradle">
            <tspan x="0.5" y="12">Gradle</tspan>
          </text>
        </g>
      </g>
      <g id="Group-Copy-2" transform="translate(773.000000, 394.000000)" fill="#000000" font-family="Lato-Regular, Lato"
         font-size="14" font-weight="normal">
        <g id="Group">
          <text id="Local-cache">
            <tspan x="0" y="14">Local cache</tspan>
          </text>
        </g>
      </g>
      <polygon id="Polygon-Copy-3" stroke="#000000"
               points="809 337 864 369.5 864 434.5 809 467 754 434.5 754 369.5"></polygon>
      <text id="1.-Read-miss-Copy" font-family="Lato-Regular, Lato" font-size="14" font-weight="normal" fill="#02303A">
        <tspan x="597.9515" y="389">1. Read miss</tspan>
      </text>
      <text id="3.-Write" font-family="Lato-Regular, Lato" font-size="14" font-weight="normal" fill="#02303A">
        <tspan x="658.2235" y="518">3. Write</tspan>
      </text>
      <g id="Stroke-3998-+-Fill-3999-+-Stroke-4000-Copy-3" transform="translate(627.000000, 398.000000)">
        <rect id="Rectangle" fill="#02303A" x="9" y="4" width="1" height="7" rx="0.5"></rect>
        <path
          d="M8.5,14 C8.5,14.5525 8.9475,15 9.5,15 C10.0515,15 10.5,14.5525 10.5,14 C10.5,13.448 10.0515,13 9.5,13 C8.9475,13 8.5,13.448 8.5,14 Z"
          id="Fill-3999" fill="#02303A"></path>
        <polygon id="Stroke-4000" stroke="#02303A" stroke-linecap="round" stroke-linejoin="round"
                 points="9.5 19 0 9.5 9.5 0 19 9.5"></polygon>
      </g>
      <polyline id="Path-5-Copy" stroke="#02303A"
                transform="translate(686.000000, 483.250000) scale(1, -1) translate(-686.000000, -483.250000) "
                points="563 530.5 563 436 809 436 809 487"></polyline>
      <polyline id="Stroke-623-Copy-2" stroke="#02303A" stroke-linecap="round" stroke-linejoin="round"
                transform="translate(809.000000, 484.500000) rotate(-180.000000) translate(-809.000000, -484.500000) "
                points="798 478 809 491 820 478"></polyline>
      <g id="Stroke-622-+-Stroke-623-Copy-5"
         transform="translate(710.000000, 402.500000) rotate(-270.000000) translate(-710.000000, -402.500000) translate(698.500000, 377.500000)"
         stroke="#02303A" stroke-linecap="round" stroke-linejoin="round">
        <path d="M12,48.5026584 L12,1.48093591" id="Stroke-622"></path>
        <polyline id="Stroke-623-Copy"
                  transform="translate(11.972168, 6.837402) rotate(-180.000000) translate(-11.972168, -6.837402) "
                  points="0.972167969 0.587402344 11.972168 13.0874023 22.972168 0.587402344"></polyline>
      </g>
      <g id="Group-2" transform="translate(76.000000, 60.000000)">
        <text id="1" font-family="Lato-Regular, Lato" font-size="12" font-weight="normal" fill="#02303A">
          <tspan x="5.70554687" y="13">1</tspan>
        </text>
        <circle id="Oval-2" stroke="#02303A" cx="9" cy="9" r="9"></circle>
      </g>
      <g id="Group-6" transform="translate(541.000000, 378.000000)" stroke="#02303A" stroke-linejoin="round">
        <polygon id="Stroke-2"
                 points="32.888674 26 12.111326 26 9 20.1939839 13.0399473 11 31.9600527 11 36 20.1939839"></polygon>
        <polygon id="Stroke-4" fill="#FFFFFF"
                 points="27.0744439 29.7961053 27.0823877 25.9785263 31.0474353 21.1489474 31.9473445 7.20673684 27.0823877 0 17.9176123 0 13.0526555 7.20673684 13.9525647 21.1489474 17.9176123 25.9785263 17.9244212 29.7961053 2.33091239 37.1116842 0 44 45 44 42.6690876 37.1116842"></polygon>
        <polygon id="Stroke-10"
                 points="31.786943 7.39970282 27.0048729 0 22.5005577 0 17.9962426 0 13.2141725 7.39970282 13 12 22.5005577 6.17890045 32 12"></polygon>
      </g>
      <g id="Group-4" transform="translate(493.000000, 312.000000)">
        <text id="3" font-family="Lato-Regular, Lato" font-size="12" font-weight="normal" fill="#02303A">
          <tspan x="5.7465625" y="13.2133789">3</tspan>
        </text>
        <circle id="Oval-2-Copy-2" stroke="#02303A" cx="9" cy="9" r="9"></circle>
      </g>
    </g>
  </g>
</svg>